<?xml version="1.0" standalone="no"?>
<!DOCTYPE svg PUBLIC "-//W3C//DTD SVG 20010904//EN"
 "http://www.w3.org/TR/2001/REC-SVG-20010904/DTD/svg10.dtd">
<svg version="1.0" xmlns="http://www.w3.org/2000/svg"
 width="478.000000pt" height="675.000000pt" viewBox="0 0 478.000000 675.000000"
 preserveAspectRatio="xMidYMid meet">

<g transform="translate(0.000000,675.000000) scale(0.100000,-0.100000)"
fill="#000000" stroke="none">
<path d="M2470 6388 c-309 -16 -397 -23 -403 -34 -4 -8 -16 -14 -27 -14 -12 0
-20 -8 -22 -22 -3 -23 -48 -40 -48 -19 0 6 -11 11 -25 11 -37 0 -75 -21 -75
-42 0 -20 -1 -21 -52 -9 -35 8 -38 7 -38 -13 0 -12 6 -28 12 -34 18 -18 -6
-32 -53 -32 -20 0 -50 -7 -65 -15 -16 -8 -41 -15 -56 -15 -35 0 -36 -17 -3
-32 32 -14 31 -23 -2 -45 -16 -10 -34 -24 -42 -31 -10 -10 -28 -12 -60 -8 -35
5 -43 4 -33 -6 14 -14 16 -68 3 -68 -5 0 -13 -9 -16 -21 -8 -23 -64 -78 -80
-79 -16 0 -95 -81 -95 -96 0 -18 14 -18 29 0 6 8 20 16 30 19 14 3 19 -1 18
-17 0 -11 3 -28 7 -37 6 -13 -1 -17 -39 -22 -26 -2 -52 -10 -58 -17 -9 -9 -3
-10 28 -5 37 6 38 6 20 -7 -11 -8 -34 -20 -52 -26 -72 -24 -153 -92 -153 -129
0 -3 20 11 44 31 44 36 94 61 104 52 2 -3 -8 -11 -24 -18 -41 -17 -73 -48 -67
-64 3 -8 -5 -17 -19 -23 -25 -9 -67 -86 -54 -98 4 -4 18 6 31 22 13 17 27 26
31 22 5 -4 3 -11 -3 -15 -21 -13 -34 -65 -40 -152 -3 -47 -10 -91 -16 -98 -6
-7 -11 -45 -13 -85 -4 -130 -32 -275 -74 -383 -4 -11 -4 -28 1 -37 7 -11 6
-24 -1 -37 -6 -11 -8 -24 -5 -29 3 -5 -2 -56 -10 -114 -9 -57 -15 -144 -13
-193 l3 -89 35 -3 c82 -6 100 -12 116 -44 12 -24 14 -36 5 -55 -6 -13 -11 -45
-11 -72 0 -26 -5 -72 -10 -102 -14 -73 -19 -248 -8 -278 6 -16 -2 -81 -24
-200 -28 -157 -31 -196 -32 -366 0 -162 4 -205 24 -295 57 -262 151 -445 378
-743 104 -136 175 -198 305 -263 169 -84 259 -109 392 -108 188 1 340 57 611
225 152 94 182 117 316 248 181 176 230 244 360 504 86 172 187 422 175 433
-2 2 -52 -87 -112 -198 -59 -112 -118 -219 -130 -238 -12 -19 -39 -64 -60 -99
-58 -97 -147 -197 -243 -274 -48 -38 -106 -92 -128 -119 -26 -31 -75 -70 -125
-101 l-84 -51 -125 -7 c-69 -4 -140 -10 -157 -14 -29 -7 -39 -2 -90 41 -32 26
-83 71 -113 99 -102 95 -165 106 -483 85 l-148 -10 -46 32 c-59 43 -160 175
-227 296 -43 78 -56 113 -65 177 -7 44 -21 118 -32 164 -11 46 -22 125 -25
175 -3 50 -11 120 -19 156 -8 36 -16 103 -19 150 -4 47 -15 126 -26 175 -21
97 -27 300 -10 365 5 19 21 103 36 185 29 166 75 305 158 480 45 93 64 122
129 187 78 80 80 82 112 216 22 93 91 181 208 269 21 15 81 63 135 105 116 93
221 150 334 182 120 34 126 35 292 56 168 22 320 26 363 9 15 -6 134 -48 265
-94 169 -60 254 -95 298 -124 178 -119 392 -462 415 -668 4 -32 13 -108 21
-170 16 -118 14 -151 -16 -248 -13 -43 -20 -106 -24 -220 -4 -129 -9 -170 -26
-213 -21 -56 -83 -283 -106 -392 -8 -36 -24 -87 -35 -114 -11 -27 -31 -79 -43
-115 -13 -36 -26 -75 -30 -86 -6 -14 1 -11 22 12 21 21 34 49 42 89 7 32 32
99 55 149 23 49 48 111 55 138 8 29 27 62 49 85 20 21 45 55 56 76 11 21 33
49 48 62 35 30 57 71 57 107 0 21 12 39 43 68 34 30 48 52 63 101 20 67 22
121 10 343 -3 66 -8 158 -10 205 -2 47 -7 150 -11 230 -5 111 -3 161 8 215 13
60 13 76 0 117 -13 46 -13 50 10 91 61 107 61 201 -1 323 -22 43 -45 105 -52
137 -6 33 -20 77 -30 100 -17 37 -17 44 -3 79 17 43 12 71 -12 62 -18 -7 -45
12 -45 33 0 25 -99 112 -140 123 -21 6 -43 17 -50 25 -7 8 -20 15 -29 15 -9 0
-25 6 -36 13 -29 20 -101 37 -170 41 -68 4 -115 19 -115 38 0 14 -45 38 -71
38 -10 0 -20 4 -23 9 -3 4 -23 11 -43 14 -21 4 -46 16 -55 27 -10 11 -27 20
-38 20 -11 0 -20 5 -20 10 0 6 -18 10 -40 10 -22 0 -40 3 -40 8 0 4 -14 15
-32 25 -48 27 -178 29 -628 5z"/>
<path d="M1895 4781 c-6 -5 -43 -21 -83 -35 -111 -38 -261 -155 -275 -213 -8
-34 8 -37 50 -10 85 54 172 90 253 107 99 20 162 15 230 -20 63 -32 267 -109
330 -125 101 -25 143 -45 174 -81 l31 -36 37 15 c44 18 62 49 54 90 -3 17 -1
36 5 43 9 11 8 14 -6 14 -12 0 -15 5 -11 18 6 16 5 16 -8 0 -19 -25 -26 -22
-27 10 0 15 -9 45 -19 67 -17 37 -19 38 -26 18 -3 -13 -11 -20 -16 -17 -6 4
-14 0 -19 -7 -6 -10 -22 1 -63 46 -37 40 -56 54 -56 43 0 -11 -8 -18 -20 -18
-11 0 -20 4 -20 9 0 16 -61 55 -69 44 -6 -10 -24 -7 -226 31 -90 17 -206 21
-220 7z"/>
<path d="M3150 4364 c-36 -19 -75 -45 -88 -57 -31 -29 -54 -80 -50 -109 3 -23
4 -23 123 -20 122 3 154 -1 284 -38 87 -25 128 -45 213 -104 109 -76 121 -94
128 -184 5 -76 5 -77 22 -52 27 40 41 123 30 176 -6 26 -8 53 -5 60 3 8 -5 18
-21 23 -14 6 -37 29 -51 51 -31 50 -78 94 -125 119 -19 11 -46 31 -59 45 -14
15 -53 35 -94 47 -38 13 -71 28 -74 36 -4 9 -16 11 -46 6 -37 -6 -40 -5 -35
15 7 25 -10 29 -43 11 -13 -7 -24 -7 -32 -1 -8 7 -32 -1 -77 -24z"/>
<path d="M1957 4293 c-4 -3 -7 -24 -7 -45 0 -67 51 -98 160 -98 51 0 74 16 85
60 8 33 -22 65 -72 79 -42 12 -156 15 -166 4z"/>
<path d="M3181 3859 c-27 -43 -26 -51 4 -87 31 -37 100 -72 142 -72 43 0 97
53 83 80 -21 39 -110 93 -172 105 -34 7 -39 5 -57 -26z"/>
<path d="M2212 3623 c-17 -16 -43 -52 -58 -82 -34 -69 -30 -133 11 -168 14
-13 31 -23 36 -23 6 0 -3 12 -20 26 -61 51 -47 149 35 231 48 48 46 58 -4 16z"/>
<path d="M2311 3459 l-25 -10 21 -21 c20 -19 27 -20 100 -11 l78 9 -45 22
c-48 23 -90 27 -129 11z"/>
<path d="M2937 3410 c2 -19 7 -41 9 -49 3 -8 -3 -39 -12 -68 -20 -62 -73 -115
-132 -131 -34 -9 -35 -10 -9 -11 108 -4 201 158 152 264 l-14 30 6 -35z"/>
<path d="M2719 3327 l-27 -10 26 -24 c25 -23 47 -28 76 -17 21 8 20 27 -2 47
-21 19 -35 20 -73 4z"/>
<path d="M2267 3270 c-16 -5 -34 -13 -40 -18 -29 -24 -128 -42 -265 -48 -172
-7 -203 -18 -277 -90 -37 -36 -55 -63 -68 -105 -22 -72 -22 -96 2 -104 33 -10
116 18 149 51 7 8 18 12 23 9 5 -4 6 0 3 8 -3 8 1 19 8 24 13 11 405 32 542
29 l69 -1 29 55 c37 71 31 107 -25 161 -35 33 -47 39 -82 38 -22 0 -53 -5 -68
-9z"/>
<path d="M2528 3160 c-30 -16 -40 -30 -54 -74 -11 -34 -14 -66 -10 -89 6 -34
10 -37 87 -62 90 -30 164 -83 200 -142 13 -21 28 -42 34 -48 28 -25 73 -94 89
-138 18 -49 39 -67 76 -67 30 0 33 19 21 117 -15 114 -56 198 -124 255 -27 23
-77 84 -112 137 -85 130 -127 153 -207 111z"/>
<path d="M1810 2970 c0 -6 17 -10 37 -10 43 0 41 5 -4 13 -19 4 -33 2 -33 -3z"/>
<path d="M1969 2930 c46 -16 156 -61 245 -99 123 -53 184 -73 256 -85 125 -22
150 -30 238 -84 40 -24 75 -42 77 -40 6 5 -121 87 -160 104 -18 7 -80 23 -140
34 -119 24 -180 45 -345 120 -101 45 -207 80 -241 80 -8 0 24 -14 70 -30z"/>
<path d="M2122 2618 c-30 -38 -64 -126 -65 -168 -1 -108 33 -142 144 -144 57
-1 62 1 92 34 24 25 38 56 51 111 11 42 17 83 14 91 -6 14 -183 88 -212 88 -7
0 -18 -6 -24 -12z"/>
<path d="M3307 2300 c-4 -14 -2 -26 3 -28 6 -2 10 -18 11 -35 0 -18 3 -26 6
-19 2 6 11 12 19 12 15 0 22 -22 27 -85 3 -33 4 -31 5 14 2 43 -2 59 -19 77
-17 18 -19 26 -10 42 6 12 11 27 11 34 -1 7 -7 0 -14 -17 -13 -30 -17 -28 -28
15 -3 9 -7 5 -11 -10z"/>
<path d="M3575 2308 c-3 -7 2 -33 9 -58 9 -27 15 -36 15 -23 1 12 -3 33 -9 47
-9 24 3 47 13 26 3 -6 4 -5 3 2 -3 17 -25 22 -31 6z"/>
<path d="M3532 2265 c-13 -49 -10 -75 4 -33 l8 23 7 -25 c7 -24 7 -24 7 5 0
17 -3 41 -7 54 -5 20 -8 17 -19 -24z"/>
<path d="M3650 2290 c0 -25 -17 -26 -23 -2 -3 9 -5 1 -6 -18 0 -23 2 -30 8
-21 7 11 11 10 20 -5 9 -16 10 -12 11 24 0 23 -2 42 -5 42 -3 0 -5 -9 -5 -20z"/>
<path d="M3686 2250 c3 -36 5 -80 5 -97 0 -18 2 -33 3 -33 2 0 15 17 30 38 29
43 34 72 11 72 -11 0 -14 -7 -9 -25 4 -15 2 -25 -4 -25 -17 0 -24 18 -33 79
-8 56 -8 56 -3 -9z"/>
<path d="M3444 2243 c-6 -32 -8 -35 -16 -18 -6 15 -7 12 -2 -10 8 -41 24 -56
24 -23 0 15 5 30 10 33 13 8 13 42 1 50 -6 3 -13 -11 -17 -32z"/>
<path d="M3481 2254 c0 -11 3 -14 6 -6 3 7 2 16 -1 19 -3 4 -6 -2 -5 -13z"/>
<path d="M3470 2218 c0 -7 5 -20 10 -28 8 -12 10 -9 10 13 0 15 -4 27 -10 27
-5 0 -10 -6 -10 -12z"/>
<path d="M3380 2093 c0 -5 10 -18 23 -29 l22 -19 -20 25 c-11 14 -21 27 -22
29 -2 2 -3 0 -3 -6z"/>
</g>
</svg>
